STARTFONT 2.1
COMMENT
COMMENT Converted from OpenType font "moon_phases.ttf" by "otf2bdf 3.0".
COMMENT
FONT -FreeType-Moon Phases-Medium-R-Normal--66-480-100-100-P-493-ISO10646-1
SIZE 48 100 100
FONTBOUNDINGBOX 64 67 0 0
STARTPROPERTIES 19
FOUNDRY "FreeType"
FAMILY_NAME "Moon Phases"
WEIGHT_NAME "Medium"
SLANT "R"
SETWIDTH_NAME "Normal"
ADD_STYLE_NAME ""
PIXEL_SIZE 66
POINT_SIZE 480
RESOLUTION_X 100
RESOLUTION_Y 100
SPACING "P"
AVERAGE_WIDTH 493
CHARSET_REGISTRY "ISO10646"
CHARSET_ENCODING "1"
FONT_ASCENT 66
FONT_DESCENT 0
COPYRIGHT "© 1995 by Curtis Clark, free for personal use"
_OTF_FONTFILE "moon_phases.ttf"
_OTF_PSNAME "MoonPhases-Regular"
ENDPROPERTIES
CHARS 59
STARTCHAR 0020
ENCODING 32
SWIDTH 1005 0
DWIDTH 67 0
BBX 0 0 0 0
BITMAP
ENDCHAR
STARTCHAR 002A
ENCODING 42
SWIDTH 1005 0
DWIDTH 67 0
BBX 61 61 3 3
BITMAP
0000007FF8000000
000007FFFF800000
00003FFFFFE00000
0000FFFFFFF80000
0001FFFFFFFE0000
0007FFFFFFFF0000
000FFFFFFFFFC000
001FFFFFFFFFE000
003FFFFFFFFFF000
007FFFFFFFFFF800
00FFFFFFFFFFFC00
01FFFFFFFFFFFE00
03FFFFFFFFFFFE00
07FFFFFFFFFFFF00
07FFFFFFFFFFFF80
0FFFFFFFFFFFFF80
0FFFFFFFFFFFFFC0
1FFFFFFFFFFFFFC0
1FFFFFFFFFFFFFE0
3FFFFFFFFFFFFFE0
3FFFFFFFFFFFFFF0
3FFFFFFFFFFFFFF0
7FFFFFFFFFFFFFF0
7FFFFFFFFFFFFFF0
7FFFFFFFFFFFFFF8
7FFFFFFFFFFFFFF8
7FFFFFFFFFFFFFF8
FFFFFFFFFFFFFFF8
FFFFFFFFFFFFFFF8
FFFFFFFFFFFFFFF8
FFFFFFFFFFFFFFF8
FFFFFFFFFFFFFFF8
FFFFFFFFFFFFFFF8
FFFFFFFFFFFFFFF8
FFFFFFFFFFFFFFF8
7FFFFFFFFFFFFFF8
7FFFFFFFFFFFFFF8
7FFFFFFFFFFFFFF0
7FFFFFFFFFFFFFF0
3FFFFFFFFFFFFFF0
3FFFFFFFFFFFFFF0
3FFFFFFFFFFFFFE0
1FFFFFFFFFFFFFE0
1FFFFFFFFFFFFFC0
0FFFFFFFFFFFFFC0
0FFFFFFFFFFFFF80
07FFFFFFFFFFFF80
07FFFFFFFFFFFF00
03FFFFFFFFFFFE00
01FFFFFFFFFFFE00
00FFFFFFFFFFFC00
007FFFFFFFFFF800
003FFFFFFFFFF000
001FFFFFFFFFE000
000FFFFFFFFFC000
0007FFFFFFFF0000
0001FFFFFFFE0000
0000FFFFFFF80000
00003FFFFFE00000
000007FFFF000000
0000007FF0000000
ENDCHAR
STARTCHAR 002B
ENCODING 43
SWIDTH 975 0
DWIDTH 65 0
BBX 57 57 5 5
BITMAP
000001FFC0000000
00001FFFFC000000
00007FFFFF800000
0001FFFFFFC00000
0007FFFFFFF00000
000FFFFFFFF80000
001FFFFFFFFE0000
003FFFFFFFFF0000
007FFFFFFFFF8000
00FFFFFFFFFFC000
01FFFFFFFFFFE000
03FFFFFFFFFFE000
07FFFFFFFFFFF000
07FFFFFFFFFFF800
0FFFFFFFFFFFF800
1FFFFFFFFFFFFC00
1FFFFFFFFFFFFE00
1FFFFFFFFFFFFE00
3FFFFFFFFFFFFE00
3FFFFFFFFFFFFF00
3FFFFFFFFFFFFF00
7FFFFFFFFFFFFF00
7FFFFFFFFFFFFF00
7FFFFFFFFFFFFF80
7FFFFFFFFFFFFF80
7FFFFFFFFFFFFF80
7FFFFFFFFFFFFF80
FFFFFFFFFFFFFF80
FFFFFFFFFFFFFF80
FFFFFFFFFFFFFF80
7FFFFFFFFFFFFF80
7FFFFFFFFFFFFF80
7FFFFFFFFFFFFF80
7FFFFFFFFFFFFF80
7FFFFFFFFFFFFF00
7FFFFFFFFFFFFF00
7FFFFFFFFFFFFF00
3FFFFFFFFFFFFF00
3FFFFFFFFFFFFE00
1FFFFFFFFFFFFE00
1FFFFFFFFFFFFC00
1FFFFFFFFFFFFC00
0FFFFFFFFFFFF800
07FFFFFFFFFFF800
07FFFFFFFFFFF000
03FFFFFFFFFFE000
01FFFFFFFFFFE000
00FFFFFFFFFFC000
007FFFFFFFFF8000
003FFFFFFFFF0000
001FFFFFFFFE0000
000FFFFFFFF80000
0007FFFFFFF00000
0001FFFFFFC00000
00007FFFFF000000
00001FFFFC000000
000001FFC0000000
ENDCHAR
STARTCHAR 0030
ENCODING 48
SWIDTH 1005 0
DWIDTH 67 0
BBX 61 61 3 3
BITMAP
0000007FF8000000
000007FFFF800000
00003FFFFFE00000
0000FFFFFFF80000
0001FFFFFFFE0000
0007FFFFFFFF0000
000FFFFFFFFFC000
001FFFFFFFFFE000
003FFFFFFFFFF000
007FFFFFFFFFF800
00FFFFFFFFFFFC00
01FFFFFFFFFFFE00
03FFFFFFFFFFFE00
07FFFFFFFFFFFF00
07FFFFFFFFFFFF80
0FFFFFFFFFFFFF80
0FFFFFFFFFFFFFC0
1FFFFFFFFFFFFFC0
1FFFFFFFFFFFFFE0
3FFFFFFFFFFFFFE0
3FFFFFFFFFFFFFF0
3FFFFFFFFFFFFFF0
7FFFFFFFFFFFFFF0
7FFFFFFFFFFFFFF0
7FFFFFFFFFFFFFF8
7FFFFFFFFFFFFFF8
7FFFFFFFFFFFFFF8
FFFFFFFFFFFFFFF8
FFFFFFFFFFFFFFF8
FFFFFFFFFFFFFFF8
FFFFFFFFFFFFFFF8
FFFFFFFFFFFFFFF8
FFFFFFFFFFFFFFF8
FFFFFFFFFFFFFFF8
FFFFFFFFFFFFFFF8
7FFFFFFFFFFFFFF8
7FFFFFFFFFFFFFF8
7FFFFFFFFFFFFFF0
7FFFFFFFFFFFFFF0
3FFFFFFFFFFFFFF0
3FFFFFFFFFFFFFF0
3FFFFFFFFFFFFFE0
1FFFFFFFFFFFFFE0
1FFFFFFFFFFFFFC0
0FFFFFFFFFFFFFC0
0FFFFFFFFFFFFF80
07FFFFFFFFFFFF80
07FFFFFFFFFFFF00
03FFFFFFFFFFFE00
01FFFFFFFFFFFE00
00FFFFFFFFFFFC00
007FFFFFFFFFF800
003FFFFFFFFFF000
001FFFFFFFFFE000
000FFFFFFFFFC000
0007FFFFFFFF0000
0001FFFFFFFE0000
0000FFFFFFF80000
00003FFFFFE00000
000007FFFF000000
0000007FF0000000
ENDCHAR
STARTCHAR 003D
ENCODING 61
SWIDTH 0 0
DWIDTH 0 0
BBX 57 57 5 5
BITMAP
000001FFC0000000
00001FFFFC000000
00007FFFFF800000
0001FFFFFFC00000
0007FFFFFFF00000
000FFFFFFFF80000
001FFFFFFFFE0000
003FFFFFFFFF0000
007FFFFFFFFF8000
00FFFFFFFFFFC000
01FFFFFFFFFFE000
03FFFFFFFFFFE000
07FFFFFFFFFFF000
07FFFFFFFFFFF800
0FFFFFFFFFFFF800
1FFFFFFFFFFFFC00
1FFFFFFFFFFFFE00
1FFFFFFFFFFFFE00
3FFFFFFFFFFFFE00
3FFFFFFFFFFFFF00
3FFFFFFFFFFFFF00
7FFFFFFFFFFFFF00
7FFFFFFFFFFFFF00
7FFFFFFFFFFFFF80
7FFFFFFFFFFFFF80
7FFFFFFFFFFFFF80
7FFFFFFFFFFFFF80
FFFFFFFFFFFFFF80
FFFFFFFFFFFFFF80
FFFFFFFFFFFFFF80
7FFFFFFFFFFFFF80
7FFFFFFFFFFFFF80
7FFFFFFFFFFFFF80
7FFFFFFFFFFFFF80
7FFFFFFFFFFFFF00
7FFFFFFFFFFFFF00
7FFFFFFFFFFFFF00
3FFFFFFFFFFFFF00
3FFFFFFFFFFFFE00
1FFFFFFFFFFFFE00
1FFFFFFFFFFFFC00
1FFFFFFFFFFFFC00
0FFFFFFFFFFFF800
07FFFFFFFFFFF800
07FFFFFFFFFFF000
03FFFFFFFFFFE000
01FFFFFFFFFFE000
00FFFFFFFFFFC000
007FFFFFFFFF8000
003FFFFFFFFF0000
001FFFFFFFFE0000
000FFFFFFFF80000
0007FFFFFFF00000
0001FFFFFFC00000
00007FFFFF000000
00001FFFFC000000
000001FFC0000000
ENDCHAR
STARTCHAR 0040
ENCODING 64
SWIDTH 1005 0
DWIDTH 67 0
BBX 61 61 3 3
BITMAP
0000007FF8000000
000007FFFF000000
00003F800FE00000
0000F80000F80000
0001E000003E0000
00078000000F0000
000F00000003C000
001C00000001E000
0038000000007000
0070000000003800
00E0000000001C00
01C0000000000E00
0380000000000600
0700000000000700
0600000000000380
0E00000000000180
0C000000000001C0
18000000000000C0
18000000000000E0
3800000000000060
3000000000000070
3000000000000030
7000000000000030
6000000000000030
6000000000000038
6000000000000018
6000000000000018
E000000000000018
E000000000000018
C000000000000018
C000000000000018
C000000000000018
E000000000000018
E000000000000018
E000000000000018
6000000000000018
6000000000000038
6000000000000030
7000000000000030
3000000000000030
3000000000000070
3800000000000060
18000000000000E0
1C000000000000C0
0C000000000001C0
0E00000000000180
0600000000000380
0700000000000700
0380000000000600
01C0000000000E00
00E0000000001C00
0070000000003800
0038000000007000
001C00000001E000
000E00000003C000
00078000000F0000
0001E000001E0000
0000FC0000F80000
00003F800FE00000
000007FFFF000000
0000007FF0000000
ENDCHAR
STARTCHAR 0041
ENCODING 65
SWIDTH 1005 0
DWIDTH 67 0
BBX 61 61 3 3
BITMAP
0000007FF8000000
000007FFFF800000
00003FFFFFE00000
0000FFFFFEF80000
0001FFFFFFFE0000
0007FFFFFFEF0000
000FFFFFFFFBC000
001FFFFFFFFDE000
003FFFFFFFFE7000
007FFFFFFFFF3800
00FFFFFFFFFF9C00
01FFFFFFFFFFCE00
03FFFFFFFFFFE600
07FFFFFFFFFFF700
07FFFFFFFFFFF380
0FFFFFFFFFFFF980
0FFFFFFFFFFFF9C0
1FFFFFFFFFFFFCC0
1FFFFFFFFFFFFCE0
3FFFFFFFFFFFFE60
3FFFFFFFFFFFFE70
3FFFFFFFFFFFFE30
7FFFFFFFFFFFFF30
7FFFFFFFFFFFFF30
7FFFFFFFFFFFFF38
7FFFFFFFFFFFFF18
7FFFFFFFFFFFFF18
FFFFFFFFFFFFFF98
FFFFFFFFFFFFFF98
FFFFFFFFFFFFFF98
FFFFFFFFFFFFFF98
FFFFFFFFFFFFFF98
FFFFFFFFFFFFFF98
FFFFFFFFFFFFFF18
FFFFFFFFFFFFFF18
7FFFFFFFFFFFFF18
7FFFFFFFFFFFFF38
7FFFFFFFFFFFFF30
7FFFFFFFFFFFFF30
3FFFFFFFFFFFFE30
3FFFFFFFFFFFFE70
3FFFFFFFFFFFFE60
1FFFFFFFFFFFFCE0
1FFFFFFFFFFFFCC0
0FFFFFFFFFFFF9C0
0FFFFFFFFFFFF980
07FFFFFFFFFFF380
07FFFFFFFFFFF700
03FFFFFFFFFFE600
01FFFFFFFFFFCE00
00FFFFFFFFFF9C00
007FFFFFFFFF3800
003FFFFFFFFE7000
001FFFFFFFFDE000
000FFFFFFFFBC000
0007FFFFFFEF0000
0001FFFFFF9E0000
0000FFFFFEF80000
00003FFFFFE00000
000007FFFF000000
0000007FF0000000
ENDCHAR
STARTCHAR 0042
ENCODING 66
SWIDTH 1005 0
DWIDTH 67 0
BBX 61 61 3 3
BITMAP
0000007FF8000000
000007FFFF800000
00003FFFEFE00000
0000FFFFFCF80000
0001FFFFFF3E0000
0007FFFFFFCF0000
000FFFFFFFE3C000
001FFFFFFFF1E000
003FFFFFFFF87000
007FFFFFFFFC3800
00FFFFFFFFFE1C00
01FFFFFFFFFF0E00
03FFFFFFFFFF8600
07FFFFFFFFFF8700
07FFFFFFFFFFC380
0FFFFFFFFFFFC180
0FFFFFFFFFFFE1C0
1FFFFFFFFFFFE0C0
1FFFFFFFFFFFF0E0
3FFFFFFFFFFFF060
3FFFFFFFFFFFF070
3FFFFFFFFFFFF830
7FFFFFFFFFFFF830
7FFFFFFFFFFFF830
7FFFFFFFFFFFF838
7FFFFFFFFFFFFC18
7FFFFFFFFFFFFC18
FFFFFFFFFFFFFC18
FFFFFFFFFFFFFC18
FFFFFFFFFFFFFC18
FFFFFFFFFFFFFC18
FFFFFFFFFFFFFC18
FFFFFFFFFFFFFC18
FFFFFFFFFFFFFC18
FFFFFFFFFFFFFC18
7FFFFFFFFFFFFC18
7FFFFFFFFFFFF838
7FFFFFFFFFFFF830
7FFFFFFFFFFFF830
3FFFFFFFFFFFF830
3FFFFFFFFFFFF070
3FFFFFFFFFFFF060
1FFFFFFFFFFFF0E0
1FFFFFFFFFFFE0C0
0FFFFFFFFFFFE1C0
0FFFFFFFFFFFC180
07FFFFFFFFFFC380
07FFFFFFFFFF8700
03FFFFFFFFFF8600
01FFFFFFFFFF0E00
00FFFFFFFFFE1C00
007FFFFFFFFC3800
003FFFFFFFF87000
001FFFFFFFF1E000
000FFFFFFFE3C000
0007FFFFFFCF0000
0001FFFFFF1E0000
0000FFFFFCF80000
00003FFFEFE00000
000007FFFF000000
0000007FF0000000
ENDCHAR
STARTCHAR 0043
ENCODING 67
SWIDTH 1005 0
DWIDTH 67 0
BBX 61 61 3 3
BITMAP
0000007FF8000000
000007FFFF800000
00003FFFEFE00000
0000FFFFF8F80000
0001FFFFFE3E0000
0007FFFFFF0F0000
000FFFFFFF83C000
001FFFFFFFC1E000
003FFFFFFFE07000
007FFFFFFFF03800
00FFFFFFFFF81C00
01FFFFFFFFF80E00
03FFFFFFFFFC0600
07FFFFFFFFFE0700
07FFFFFFFFFE0380
0FFFFFFFFFFF0180
0FFFFFFFFFFF01C0
1FFFFFFFFFFF00C0
1FFFFFFFFFFF80E0
3FFFFFFFFFFF8060
3FFFFFFFFFFF8070
3FFFFFFFFFFFC030
7FFFFFFFFFFFC030
7FFFFFFFFFFFC030
7FFFFFFFFFFFC038
7FFFFFFFFFFFC018
7FFFFFFFFFFFC018
FFFFFFFFFFFFC018
FFFFFFFFFFFFC018
FFFFFFFFFFFFE018
FFFFFFFFFFFFE018
FFFFFFFFFFFFC018
FFFFFFFFFFFFC018
FFFFFFFFFFFFC018
FFFFFFFFFFFFC018
7FFFFFFFFFFFC018
7FFFFFFFFFFFC038
7FFFFFFFFFFFC030
7FFFFFFFFFFFC030
3FFFFFFFFFFFC030
3FFFFFFFFFFF8070
3FFFFFFFFFFF8060
1FFFFFFFFFFF80E0
1FFFFFFFFFFF00C0
0FFFFFFFFFFF01C0
0FFFFFFFFFFF0180
07FFFFFFFFFE0380
07FFFFFFFFFE0700
03FFFFFFFFFC0600
01FFFFFFFFF80E00
00FFFFFFFFF81C00
007FFFFFFFF03800
003FFFFFFFE07000
001FFFFFFFC1E000
000FFFFFFFC3C000
0007FFFFFF0F0000
0001FFFFFE1E0000
0000FFFFF8F80000
00003FFFEFE00000
000007FFFF000000
0000007FF0000000
ENDCHAR
STARTCHAR 0044
ENCODING 68
SWIDTH 1005 0
DWIDTH 67 0
BBX 61 61 3 3
BITMAP
0000007FF8000000
000007FFFF800000
00003FFFCFE00000
0000FFFFF0F80000
0001FFFFF83E0000
0007FFFFFC0F0000
000FFFFFFE03C000
001FFFFFFF01E000
003FFFFFFF807000
007FFFFFFF803800
00FFFFFFFFC01C00
01FFFFFFFFE00E00
03FFFFFFFFE00600
07FFFFFFFFF00700
07FFFFFFFFF00380
0FFFFFFFFFF00180
0FFFFFFFFFF801C0
1FFFFFFFFFF800C0
1FFFFFFFFFF800E0
3FFFFFFFFFFC0060
3FFFFFFFFFFC0070
3FFFFFFFFFFC0030
7FFFFFFFFFFC0030
7FFFFFFFFFFC0030
7FFFFFFFFFFC0038
7FFFFFFFFFFC0018
7FFFFFFFFFFE0018
FFFFFFFFFFFE0018
FFFFFFFFFFFE0018
FFFFFFFFFFFE0018
FFFFFFFFFFFE0018
FFFFFFFFFFFE0018
FFFFFFFFFFFE0018
FFFFFFFFFFFE0018
FFFFFFFFFFFE0018
7FFFFFFFFFFC0018
7FFFFFFFFFFC0038
7FFFFFFFFFFC0030
7FFFFFFFFFFC0030
3FFFFFFFFFFC0030
3FFFFFFFFFFC0070
3FFFFFFFFFF80060
1FFFFFFFFFF800E0
1FFFFFFFFFF800C0
0FFFFFFFFFF801C0
0FFFFFFFFFF00180
07FFFFFFFFF00380
07FFFFFFFFF00700
03FFFFFFFFE00600
01FFFFFFFFE00E00
00FFFFFFFFC01C00
007FFFFFFF803800
003FFFFFFF807000
001FFFFFFF01E000
000FFFFFFE03C000
0007FFFFFE0F0000
0001FFFFF81E0000
0000FFFFF0F80000
00003FFFCFE00000
000007FFFF000000
0000007FF0000000
ENDCHAR
STARTCHAR 0045
ENCODING 69
SWIDTH 1005 0
DWIDTH 67 0
BBX 61 61 3 3
BITMAP
0000007FF8000000
000007FFFF800000
00003FFF8FE00000
0000FFFFC0F80000
0001FFFFE03E0000
0007FFFFF00F0000
000FFFFFF803C000
001FFFFFF801E000
003FFFFFFC007000
007FFFFFFC003800
00FFFFFFFE001C00
01FFFFFFFE000E00
03FFFFFFFE000600
07FFFFFFFF000700
07FFFFFFFF000380
0FFFFFFFFF000180
0FFFFFFFFF8001C0
1FFFFFFFFF8000C0
1FFFFFFFFF8000E0
3FFFFFFFFF800060
3FFFFFFFFF800070
3FFFFFFFFF800030
7FFFFFFFFFC00030
7FFFFFFFFFC00030
7FFFFFFFFFC00038
7FFFFFFFFFC00018
7FFFFFFFFFC00018
FFFFFFFFFFC00018
FFFFFFFFFFC00018
FFFFFFFFFFC00018
FFFFFFFFFFC00018
FFFFFFFFFFC00018
FFFFFFFFFFC00018
FFFFFFFFFFC00018
FFFFFFFFFFC00018
7FFFFFFFFFC00018
7FFFFFFFFFC00038
7FFFFFFFFFC00030
7FFFFFFFFFC00030
3FFFFFFFFF800030
3FFFFFFFFF800070
3FFFFFFFFF800060
1FFFFFFFFF8000E0
1FFFFFFFFF8000C0
0FFFFFFFFF8001C0
0FFFFFFFFF000180
07FFFFFFFF000380
07FFFFFFFF000700
03FFFFFFFF000600
01FFFFFFFE000E00
00FFFFFFFE001C00
007FFFFFFC003800
003FFFFFFC007000
001FFFFFF801E000
000FFFFFF803C000
0007FFFFF00F0000
0001FFFFE01E0000
0000FFFFC0F80000
00003FFF8FE00000
000007FFFF000000
0000007FF0000000
ENDCHAR
STARTCHAR 0046
ENCODING 70
SWIDTH 1005 0
DWIDTH 67 0
BBX 61 61 3 3
BITMAP
0000007FF8000000
000007FFFF800000
00003FFF0FE00000
0000FFFF80F80000
0001FFFF803E0000
0007FFFFC00F0000
000FFFFFC003C000
001FFFFFC001E000
003FFFFFE0007000
007FFFFFE0003800
00FFFFFFE0001C00
01FFFFFFE0000E00
03FFFFFFF0000600
07FFFFFFF0000700
07FFFFFFF0000380
0FFFFFFFF0000180
0FFFFFFFF00001C0
1FFFFFFFF00000C0
1FFFFFFFF00000E0
3FFFFFFFF0000060
3FFFFFFFF0000070
3FFFFFFFF8000030
7FFFFFFFF8000030
7FFFFFFFF8000030
7FFFFFFFF8000038
7FFFFFFFF8000018
7FFFFFFFF8000018
FFFFFFFFF8000018
FFFFFFFFF8000018
FFFFFFFFF8000018
FFFFFFFFF8000018
FFFFFFFFF8000018
FFFFFFFFF8000018
FFFFFFFFF8000018
FFFFFFFFF8000018
7FFFFFFFF8000018
7FFFFFFFF8000038
7FFFFFFFF8000030
7FFFFFFFF8000030
3FFFFFFFF8000030
3FFFFFFFF0000070
3FFFFFFFF0000060
1FFFFFFFF00000E0
1FFFFFFFF00000C0
0FFFFFFFF00001C0
0FFFFFFFF0000180
07FFFFFFF0000380
07FFFFFFF0000700
03FFFFFFF0000600
01FFFFFFE0000E00
00FFFFFFE0001C00
007FFFFFE0003800
003FFFFFE0007000
001FFFFFC001E000
000FFFFFC003C000
0007FFFFC00F0000
0001FFFF801E0000
0000FFFF80F80000
00003FFF0FE00000
000007FFFF000000
0000007FF0000000
ENDCHAR
STARTCHAR 0047
ENCODING 71
SWIDTH 1005 0
DWIDTH 67 0
BBX 61 61 3 3
BITMAP
0000007FF8000000
000007FFFF800000
00003FFE0FE00000
0000FFFE00F80000
0001FFFE003E0000
0007FFFE000F0000
000FFFFE0003C000
001FFFFE0001E000
003FFFFE00007000
007FFFFE00003800
00FFFFFE00001C00
01FFFFFE00000E00
03FFFFFE00000600
07FFFFFE00000700
07FFFFFE00000380
0FFFFFFE00000180
0FFFFFFE000001C0
1FFFFFFE000000C0
1FFFFFFE000000E0
3FFFFFFE00000060
3FFFFFFE00000070
3FFFFFFE00000030
7FFFFFFE00000030
7FFFFFFE00000030
7FFFFFFE00000038
7FFFFFFE00000018
7FFFFFFE00000018
FFFFFFFE00000018
FFFFFFFE00000018
FFFFFFFE00000018
FFFFFFFE00000018
FFFFFFFE00000018
FFFFFFFE00000018
FFFFFFFE00000018
FFFFFFFE00000018
7FFFFFFE00000018
7FFFFFFE00000038
7FFFFFFE00000030
7FFFFFFE00000030
3FFFFFFE00000030
3FFFFFFE00000070
3FFFFFFE00000060
1FFFFFFE000000E0
1FFFFFFE000000C0
0FFFFFFE000001C0
0FFFFFFE00000180
07FFFFFE00000380
07FFFFFE00000700
03FFFFFE00000600
01FFFFFE00000E00
00FFFFFE00001C00
007FFFFE00003800
003FFFFE00007000
001FFFFE0001E000
000FFFFE0003C000
0007FFFE000F0000
0001FFFE001E0000
0000FFFE00F80000
00003FFE0FE00000
000007FFFF000000
0000007FF0000000
ENDCHAR
STARTCHAR 0048
ENCODING 72
SWIDTH 1005 0
DWIDTH 67 0
BBX 61 61 3 3
BITMAP
0000007FF8000000
000007FFFF800000
00003FFC0FE00000
0000FFF800F80000
0001FFF0003E0000
0007FFF0000F0000
000FFFE00003C000
001FFFE00001E000
003FFFE000007000
007FFFE000003800
00FFFFC000001C00
01FFFFC000000E00
03FFFFC000000600
07FFFFC000000700
07FFFFC000000380
0FFFFFC000000180
0FFFFF80000001C0
1FFFFF80000000C0
1FFFFF80000000E0
3FFFFF8000000060
3FFFFF8000000070
3FFFFF8000000030
7FFFFF8000000030
7FFFFF8000000030
7FFFFF8000000038
7FFFFF8000000018
7FFFFF8000000018
FFFFFF8000000018
FFFFFF8000000018
FFFFFF8000000018
FFFFFF8000000018
FFFFFF8000000018
FFFFFF8000000018
FFFFFF8000000018
FFFFFF8000000018
7FFFFF8000000018
7FFFFF8000000038
7FFFFF8000000030
7FFFFF8000000030
3FFFFF8000000030
3FFFFF8000000070
3FFFFF8000000060
1FFFFF80000000E0
1FFFFF80000000C0
0FFFFF80000001C0
0FFFFFC000000180
07FFFFC000000380
07FFFFC000000700
03FFFFC000000600
01FFFFC000000E00
00FFFFC000001C00
007FFFE000003800
003FFFE000007000
001FFFE00001E000
000FFFE00003C000
0007FFF0000F0000
0001FFF0001E0000
0000FFF800F80000
00003FFC0FE00000
000007FFFF000000
0000007FF0000000
ENDCHAR
STARTCHAR 0049
ENCODING 73
SWIDTH 1005 0
DWIDTH 67 0
BBX 61 61 3 3
BITMAP
0000007FF8000000
000007FFFF800000
00003FF80FE00000
0000FFE000F80000
0001FFC0003E0000
0007FF80000F0000
000FFF800003C000
001FFF000001E000
003FFF0000007000
007FFE0000003800
00FFFE0000001C00
01FFFC0000000E00
03FFFC0000000600
07FFFC0000000700
07FFFC0000000380
0FFFF80000000180
0FFFF800000001C0
1FFFF800000000C0
1FFFF800000000E0
3FFFF00000000060
3FFFF00000000070
3FFFF00000000030
7FFFF00000000030
7FFFF00000000030
7FFFF00000000038
7FFFF00000000018
7FFFF00000000018
FFFFF00000000018
FFFFF00000000018
FFFFF00000000018
FFFFF00000000018
FFFFF00000000018
FFFFF00000000018
FFFFF00000000018
FFFFF00000000018
7FFFF00000000018
7FFFF00000000038
7FFFF00000000030
7FFFF00000000030
3FFFF00000000030
3FFFF00000000070
3FFFF00000000060
1FFFF800000000E0
1FFFF800000000C0
0FFFF800000001C0
0FFFF80000000180
07FFF80000000380
07FFFC0000000700
03FFFC0000000600
01FFFC0000000E00
00FFFE0000001C00
007FFE0000003800
003FFF0000007000
001FFF000001E000
000FFF800003C000
0007FF80000F0000
0001FFC0001E0000
0000FFE000F80000
00003FF80FE00000
000007FFFF000000
0000007FF0000000
ENDCHAR
STARTCHAR 004A
ENCODING 74
SWIDTH 1005 0
DWIDTH 67 0
BBX 61 61 3 3
BITMAP
0000007FF8000000
000007FFFF800000
00003FF00FE00000
0000FFC000F80000
0001FF00003E0000
0007FE00000F0000
000FFC000003C000
001FF8000001E000
003FF80000007000
007FF00000003800
00FFE00000001C00
01FFE00000000E00
03FFC00000000600
07FFC00000000700
07FFC00000000380
0FFF800000000180
0FFF8000000001C0
1FFF8000000000C0
1FFF0000000000E0
3FFF000000000060
3FFF000000000070
3FFF000000000030
7FFE000000000030
7FFE000000000030
7FFE000000000038
7FFE000000000018
7FFE000000000018
FFFE000000000018
FFFE000000000018
FFFE000000000018
FFFE000000000018
FFFE000000000018
FFFE000000000018
FFFE000000000018
FFFE000000000018
7FFE000000000018
7FFE000000000038
7FFE000000000030
7FFE000000000030
3FFF000000000030
3FFF000000000070
3FFF000000000060
1FFF0000000000E0
1FFF8000000000C0
0FFF8000000001C0
0FFF800000000180
07FFC00000000380
07FFC00000000700
03FFC00000000600
01FFE00000000E00
00FFE00000001C00
007FF00000003800
003FF80000007000
001FF8000001E000
000FFC000003C000
0007FE00000F0000
0001FF00001E0000
0000FFC000F80000
00003FF00FE00000
000007FFFF000000
0000007FF0000000
ENDCHAR
STARTCHAR 004B
ENCODING 75
SWIDTH 1005 0
DWIDTH 67 0
BBX 61 61 3 3
BITMAP
0000007FF8000000
000007FFFF800000
00003FE00FE00000
0000FF0000F80000
0001FE00003E0000
0007F800000F0000
000FF0000003C000
001FE0000001E000
003FC00000007000
007F800000003800
00FF800000001C00
01FF000000000E00
03FE000000000600
07FE000000000700
07FC000000000380
0FFC000000000180
0FF80000000001C0
1FF80000000000C0
1FF80000000000E0
3FF0000000000060
3FF0000000000070
3FF0000000000030
7FF0000000000030
7FF0000000000030
7FE0000000000038
7FE0000000000018
7FE0000000000018
FFE0000000000018
FFE0000000000018
FFE0000000000018
FFE0000000000018
FFE0000000000018
FFE0000000000018
FFE0000000000018
FFE0000000000018
7FE0000000000018
7FE0000000000038
7FF0000000000030
7FF0000000000030
3FF0000000000030
3FF0000000000070
3FF8000000000060
1FF80000000000E0
1FF80000000000C0
0FFC0000000001C0
0FFC000000000180
07FC000000000380
07FE000000000700
03FE000000000600
01FF000000000E00
00FF800000001C00
007F800000003800
003FC00000007000
001FE0000001E000
000FF0000003C000
0007F800000F0000
0001FE00001E0000
0000FF0000F80000
00003FE00FE00000
000007FFFF000000
0000007FF0000000
ENDCHAR
STARTCHAR 004C
ENCODING 76
SWIDTH 1005 0
DWIDTH 67 0
BBX 61 61 3 3
BITMAP
0000007FF8000000
000007FFFF800000
00003FC00FE00000
0000FE0000F80000
0001F800003E0000
0007F000000F0000
000FC0000003C000
001F80000001E000
003F000000007000
007E000000003800
00FC000000001C00
01FC000000000E00
03F8000000000600
07F0000000000700
07F0000000000380
0FE0000000000180
0FE00000000001C0
1FC00000000000C0
1FC00000000000E0
3F80000000000060
3F80000000000070
3F80000000000030
7F80000000000030
7F00000000000030
7F00000000000038
7F00000000000018
7F00000000000018
FF00000000000018
FF00000000000018
FF00000000000018
FF00000000000018
FF00000000000018
FF00000000000018
FF00000000000018
FF00000000000018
7F00000000000018
7F00000000000038
7F00000000000030
7F80000000000030
3F80000000000030
3F80000000000070
3F80000000000060
1FC00000000000E0
1FC00000000000C0
0FE00000000001C0
0FE0000000000180
07F0000000000380
07F0000000000700
03F8000000000600
01FC000000000E00
00FC000000001C00
007E000000003800
003F000000007000
001F80000001E000
000FC0000003C000
0007F000000F0000
0001F800001E0000
0000FE0000F80000
00003FC00FE00000
000007FFFF000000
0000007FF0000000
ENDCHAR
STARTCHAR 004D
ENCODING 77
SWIDTH 1005 0
DWIDTH 67 0
BBX 61 61 3 3
BITMAP
0000007FF8000000
000007FFFF800000
00003FC00FE00000
0000FC0000F80000
0001F000003E0000
0007C000000F0000
000F80000003C000
001E00000001E000
003C000000007000
0078000000003800
00F0000000001C00
01F0000000000E00
03E0000000000600
07C0000000000700
0780000000000380
0F80000000000180
0F000000000001C0
1F000000000000C0
1E000000000000E0
3E00000000000060
3C00000000000070
3C00000000000030
7C00000000000030
7C00000000000030
7800000000000038
7800000000000018
7800000000000018
F800000000000018
F800000000000018
F800000000000018
F800000000000018
F800000000000018
F800000000000018
F800000000000018
F800000000000018
7800000000000018
7800000000000038
7C00000000000030
7C00000000000030
3C00000000000030
3C00000000000070
3E00000000000060
1E000000000000E0
1F000000000000C0
0F000000000001C0
0F80000000000180
0780000000000380
07C0000000000700
03E0000000000600
01F0000000000E00
00F0000000001C00
0078000000003800
003C000000007000
001F00000001E000
000F80000003C000
0007C000000F0000
0001F000001E0000
0000FC0000F80000
00003FC00FE00000
000007FFFF000000
0000007FF0000000
ENDCHAR
STARTCHAR 004E
ENCODING 78
SWIDTH 1005 0
DWIDTH 67 0
BBX 61 61 3 3
BITMAP
0000007FF8000000
000007FFFF000000
00003F800FE00000
0000F80001F80000
0001E000007E0000
00078000001F0000
000F00000007C000
001C00000003E000
003800000001F000
007000000000F800
00E0000000007C00
01C0000000003E00
0380000000001E00
0700000000001F00
0600000000000F80
0E00000000000780
0C000000000007C0
18000000000003C0
18000000000003E0
38000000000001E0
30000000000001F0
30000000000001F0
70000000000000F0
60000000000000F0
60000000000000F8
60000000000000F8
60000000000000F8
E0000000000000F8
E000000000000078
C000000000000078
C000000000000078
C000000000000078
E000000000000078
E000000000000078
E0000000000000F8
60000000000000F8
60000000000000F8
60000000000000F0
70000000000000F0
30000000000001F0
30000000000001F0
38000000000001E0
18000000000003E0
1C000000000003C0
0C000000000007C0
0E00000000000780
0600000000000F80
0700000000000F00
0380000000001E00
01C0000000003E00
00E0000000007C00
007000000000F800
003800000001F000
001C00000003E000
000E00000007C000
00078000001F0000
0001E000003E0000
0000FC0001F80000
00003F800FE00000
000007FFFF000000
0000007FF0000000
ENDCHAR
STARTCHAR 004F
ENCODING 79
SWIDTH 1005 0
DWIDTH 67 0
BBX 61 61 3 3
BITMAP
0000007FF8000000
000007FFFF000000
00003F801FE00000
0000F80003F80000
0001E00000FE0000
00078000003F0000
000F0000001FC000
001C0000000FE000
003800000007F000
007000000003F800
00E000000001FC00
01C000000000FE00
0380000000007E00
0700000000007F00
0600000000003F80
0E00000000003F80
0C00000000001FC0
1800000000001FC0
1800000000000FE0
3800000000000FE0
3000000000000FF0
30000000000007F0
70000000000007F0
60000000000007F0
60000000000007F8
60000000000007F8
60000000000003F8
E0000000000003F8
E0000000000003F8
C0000000000003F8
C0000000000003F8
C0000000000003F8
E0000000000003F8
E0000000000003F8
E0000000000003F8
60000000000003F8
60000000000007F8
60000000000007F0
70000000000007F0
30000000000007F0
3000000000000FF0
3800000000000FE0
1800000000000FE0
1C00000000001FC0
0C00000000001FC0
0E00000000003F80
0600000000003F80
0700000000007F00
0380000000007E00
01C000000000FE00
00E000000001FC00
007000000003F800
003800000007F000
001C0000000FE000
000E0000001FC000
00078000003F0000
0001E00000FE0000
0000FC0003F80000
00003F801FE00000
000007FFFF000000
0000007FF0000000
ENDCHAR
STARTCHAR 0050
ENCODING 80
SWIDTH 1005 0
DWIDTH 67 0
BBX 61 61 3 3
BITMAP
0000007FF8000000
000007FFFF000000
00003FC01FE00000
0000F80007F80000
0001E00001FE0000
0007800000FF0000
000E0000007FC000
001C0000003FE000
00380000001FF000
00700000000FF800
00E000000007FC00
01C000000007FE00
038000000003FE00
070000000001FF00
060000000001FF80
0E0000000000FF80
0C0000000000FFC0
180000000000FFC0
1800000000007FE0
3800000000007FE0
3000000000007FF0
3000000000003FF0
7000000000003FF0
6000000000003FF0
6000000000003FF8
6000000000003FF8
6000000000003FF8
E000000000003FF8
E000000000003FF8
C000000000003FF8
C000000000001FF8
C000000000003FF8
E000000000003FF8
E000000000003FF8
E000000000003FF8
6000000000003FF8
6000000000003FF8
6000000000003FF0
7000000000003FF0
3000000000003FF0
3000000000007FF0
3800000000007FE0
1800000000007FE0
1C0000000000FFC0
0C0000000000FFC0
0E0000000000FF80
060000000001FF80
070000000001FF00
038000000003FE00
01C000000007FE00
00E000000007FC00
00700000000FF800
00380000001FF000
001C0000003FE000
000E0000007FC000
0007800000FF0000
0001E00001FE0000
0000FC0007F80000
00003F801FE00000
000007FFFF000000
0000007FF0000000
ENDCHAR
STARTCHAR 0051
ENCODING 81
SWIDTH 1005 0
DWIDTH 67 0
BBX 61 61 3 3
BITMAP
0000007FF8000000
000007FFFF000000
00003F803FE00000
0000F8000FF80000
0001E00007FE0000
0007800003FF0000
000F000001FFC000
001C000000FFE000
00380000007FF000
00700000007FF800
00E00000003FFC00
01C00000001FFE00
03800000001FFE00
07000000001FFF00
06000000000FFF80
0E000000000FFF80
0C0000000007FFC0
180000000007FFC0
180000000007FFE0
380000000007FFE0
300000000003FFF0
300000000003FFF0
700000000003FFF0
600000000003FFF0
600000000003FFF8
600000000003FFF8
600000000001FFF8
E00000000001FFF8
E00000000001FFF8
C00000000001FFF8
C00000000001FFF8
C00000000001FFF8
E00000000001FFF8
E00000000001FFF8
E00000000001FFF8
600000000003FFF8
600000000003FFF8
600000000003FFF0
700000000003FFF0
300000000003FFF0
300000000003FFF0
380000000007FFE0
180000000007FFE0
180000000007FFC0
0C0000000007FFC0
0E000000000FFF80
06000000000FFF80
07000000000FFF00
03800000001FFE00
01C00000001FFE00
00E00000003FFC00
00700000007FF800
00380000007FF000
001C000000FFE000
000E000001FFC000
0007800003FF0000
0001E00007FE0000
0000FC000FF80000
00003F803FE00000
000007FFFF000000
0000007FF0000000
ENDCHAR
STARTCHAR 0052
ENCODING 82
SWIDTH 1005 0
DWIDTH 67 0
BBX 61 61 3 3
BITMAP
0000007FF8000000
000007FFFF800000
00003F807FE00000
0000F8003FF80000
0001E0001FFE0000
000780000FFF0000
000F000007FFC000
001C000007FFE000
0038000003FFF000
0070000003FFF800
00E0000001FFFC00
01C0000001FFFE00
0380000001FFFE00
0700000000FFFF00
0600000000FFFF80
0E00000000FFFF80
0C000000007FFFC0
18000000007FFFC0
18000000007FFFE0
38000000007FFFE0
30000000007FFFF0
30000000007FFFF0
70000000003FFFF0
60000000003FFFF0
60000000003FFFF8
60000000003FFFF8
60000000003FFFF8
E0000000003FFFF8
E0000000003FFFF8
C0000000003FFFF8
C0000000003FFFF8
C0000000003FFFF8
E0000000003FFFF8
E0000000003FFFF8
E0000000003FFFF8
60000000003FFFF8
60000000003FFFF8
60000000003FFFF0
70000000003FFFF0
30000000007FFFF0
30000000007FFFF0
38000000007FFFE0
18000000007FFFE0
18000000007FFFC0
0C000000007FFFC0
0E00000000FFFF80
0600000000FFFF80
0700000000FFFF00
0380000001FFFE00
01C0000001FFFE00
00E0000001FFFC00
0070000003FFF800
0038000003FFF000
001C000007FFE000
000E000007FFC000
000780000FFF0000
0001E0001FFE0000
0000FC003FF80000
00003F807FE00000
000007FFFF000000
0000007FF0000000
ENDCHAR
STARTCHAR 0053
ENCODING 83
SWIDTH 1005 0
DWIDTH 67 0
BBX 61 61 3 3
BITMAP
0000007FF8000000
000007FFFF800000
00003FC0FFE00000
0000F8007FF80000
0001E0007FFE0000
000780003FFF0000
000E00003FFFC000
001C00003FFFE000
003800001FFFF000
007000001FFFF800
00E000001FFFFC00
01C000001FFFFE00
038000001FFFFE00
070000000FFFFF00
060000000FFFFF80
0E0000000FFFFF80
0C0000000FFFFFC0
180000000FFFFFC0
180000000FFFFFE0
380000000FFFFFE0
300000000FFFFFF0
3000000007FFFFF0
7000000007FFFFF0
6000000007FFFFF0
6000000007FFFFF8
6000000007FFFFF8
6000000007FFFFF8
E000000007FFFFF8
E000000007FFFFF8
C000000007FFFFF8
C000000007FFFFF8
C000000007FFFFF8
E000000007FFFFF8
E000000007FFFFF8
E000000007FFFFF8
6000000007FFFFF8
6000000007FFFFF8
6000000007FFFFF0
7000000007FFFFF0
3000000007FFFFF0
300000000FFFFFF0
380000000FFFFFE0
180000000FFFFFE0
1C0000000FFFFFC0
0C0000000FFFFFC0
0E0000000FFFFF80
060000000FFFFF80
070000000FFFFF00
038000000FFFFE00
01C000001FFFFE00
00E000001FFFFC00
007000001FFFF800
003800001FFFF000
001C00003FFFE000
000E00003FFFC000
000780003FFF0000
0001E0007FFE0000
0000FC007FF80000
00003F80FFE00000
000007FFFF000000
0000007FF0000000
ENDCHAR
STARTCHAR 0054
ENCODING 84
SWIDTH 1005 0
DWIDTH 67 0
BBX 61 61 3 3
BITMAP
0000007FF8000000
000007FFFF800000
00003F81FFE00000
0000F801FFF80000
0001E001FFFE0000
00078001FFFF0000
000E0001FFFFC000
001C0001FFFFE000
00380001FFFFF000
00700001FFFFF800
00E00001FFFFFC00
01C00001FFFFFE00
03800001FFFFFE00
07000001FFFFFF00
06000001FFFFFF80
0E000001FFFFFF80
0C000001FFFFFFC0
18000001FFFFFFC0
18000001FFFFFFE0
38000001FFFFFFE0
30000001FFFFFFF0
30000001FFFFFFF0
70000001FFFFFFF0
60000001FFFFFFF0
60000001FFFFFFF8
60000001FFFFFFF8
60000001FFFFFFF8
E0000001FFFFFFF8
E0000001FFFFFFF8
E0000001FFFFFFF8
E0000001FFFFFFF8
E0000001FFFFFFF8
E0000001FFFFFFF8
E0000001FFFFFFF8
E0000001FFFFFFF8
60000001FFFFFFF8
60000001FFFFFFF8
60000001FFFFFFF0
70000001FFFFFFF0
30000001FFFFFFF0
30000001FFFFFFF0
38000001FFFFFFE0
18000001FFFFFFE0
1C000001FFFFFFC0
0C000001FFFFFFC0
0E000001FFFFFF80
06000001FFFFFF80
07000001FFFFFF00
03800001FFFFFE00
01C00001FFFFFE00
00E00001FFFFFC00
00700001FFFFF800
00380001FFFFF000
001C0001FFFFE000
000E0001FFFFC000
00078001FFFF0000
0001E001FFFE0000
0000FC01FFF80000
00003F81FFE00000
000007FFFF000000
0000007FF0000000
ENDCHAR
STARTCHAR 0055
ENCODING 85
SWIDTH 1005 0
DWIDTH 67 0
BBX 61 61 3 3
BITMAP
0000007FF8000000
000007FFFF800000
00003F83FFE00000
0000F807FFF80000
0001E00FFFFE0000
0007800FFFFF0000
000E001FFFFFC000
001C001FFFFFE000
0038001FFFFFF000
0070001FFFFFF800
00E0003FFFFFFC00
01C0003FFFFFFE00
0380003FFFFFFE00
0700003FFFFFFF00
0600003FFFFFFF80
0E00003FFFFFFF80
0C00007FFFFFFFC0
1800007FFFFFFFC0
1800007FFFFFFFE0
3800007FFFFFFFE0
3000007FFFFFFFF0
3000007FFFFFFFF0
7000007FFFFFFFF0
6000007FFFFFFFF0
6000007FFFFFFFF8
6000007FFFFFFFF8
6000007FFFFFFFF8
E000007FFFFFFFF8
E000007FFFFFFFF8
E000007FFFFFFFF8
E000007FFFFFFFF8
E000007FFFFFFFF8
E000007FFFFFFFF8
E000007FFFFFFFF8
E000007FFFFFFFF8
6000007FFFFFFFF8
6000007FFFFFFFF8
6000007FFFFFFFF0
7000007FFFFFFFF0
3000007FFFFFFFF0
3000007FFFFFFFF0
3800007FFFFFFFE0
1800007FFFFFFFE0
1C00007FFFFFFFC0
0C00007FFFFFFFC0
0E00003FFFFFFF80
0600003FFFFFFF80
0700003FFFFFFF00
0380003FFFFFFE00
01C0003FFFFFFE00
00E0003FFFFFFC00
0070001FFFFFF800
0038001FFFFFF000
001C001FFFFFE000
000E001FFFFFC000
0007800FFFFF0000
0001E00FFFFE0000
0000FC07FFF80000
00003F83FFE00000
000007FFFF000000
0000007FF0000000
ENDCHAR
STARTCHAR 0056
ENCODING 86
SWIDTH 1005 0
DWIDTH 67 0
BBX 61 61 3 3
BITMAP
0000007FF8000000
000007FFFF800000
00003FC7FFE00000
0000F81FFFF80000
0001E03FFFFE0000
0007807FFFFF0000
000E007FFFFFC000
001C00FFFFFFE000
003800FFFFFFF000
007001FFFFFFF800
00E001FFFFFFFC00
01C003FFFFFFFE00
038003FFFFFFFE00
070003FFFFFFFF00
060007FFFFFFFF80
0E0007FFFFFFFF80
0C0007FFFFFFFFC0
1C0007FFFFFFFFC0
180007FFFFFFFFE0
38000FFFFFFFFFE0
30000FFFFFFFFFF0
30000FFFFFFFFFF0
70000FFFFFFFFFF0
60000FFFFFFFFFF0
60000FFFFFFFFFF8
60000FFFFFFFFFF8
60000FFFFFFFFFF8
E0000FFFFFFFFFF8
E0000FFFFFFFFFF8
E0000FFFFFFFFFF8
E0000FFFFFFFFFF8
E0000FFFFFFFFFF8
E0000FFFFFFFFFF8
E0000FFFFFFFFFF8
E0000FFFFFFFFFF8
60000FFFFFFFFFF8
60000FFFFFFFFFF8
60000FFFFFFFFFF0
70000FFFFFFFFFF0
30000FFFFFFFFFF0
30000FFFFFFFFFF0
38000FFFFFFFFFE0
18000FFFFFFFFFE0
1C0007FFFFFFFFC0
0C0007FFFFFFFFC0
0E0007FFFFFFFF80
060007FFFFFFFF80
070003FFFFFFFF00
038003FFFFFFFE00
01C003FFFFFFFE00
00E001FFFFFFFC00
007001FFFFFFF800
003800FFFFFFF000
001C00FFFFFFE000
000F007FFFFFC000
0007807FFFFF0000
0001E03FFFFE0000
0000FC1FFFF80000
00003F87FFE00000
000007FFFF000000
0000007FF0000000
ENDCHAR
STARTCHAR 0057
ENCODING 87
SWIDTH 1005 0
DWIDTH 67 0
BBX 61 61 3 3
BITMAP
0000007FF8000000
000007FFFF800000
00003FCFFFE00000
0000F83FFFF80000
0001E0FFFFFE0000
000781FFFFFF0000
000E03FFFFFFC000
001C07FFFFFFE000
003807FFFFFFF000
00700FFFFFFFF800
00E01FFFFFFFFC00
01C01FFFFFFFFE00
03803FFFFFFFFE00
07003FFFFFFFFF00
06003FFFFFFFFF80
0E007FFFFFFFFF80
0C007FFFFFFFFFC0
18007FFFFFFFFFC0
1800FFFFFFFFFFE0
3800FFFFFFFFFFE0
3000FFFFFFFFFFF0
3000FFFFFFFFFFF0
7001FFFFFFFFFFF0
6001FFFFFFFFFFF0
6001FFFFFFFFFFF8
6001FFFFFFFFFFF8
6001FFFFFFFFFFF8
E001FFFFFFFFFFF8
E001FFFFFFFFFFF8
E001FFFFFFFFFFF8
E001FFFFFFFFFFF8
E001FFFFFFFFFFF8
E001FFFFFFFFFFF8
E001FFFFFFFFFFF8
E001FFFFFFFFFFF8
6001FFFFFFFFFFF8
6001FFFFFFFFFFF8
6001FFFFFFFFFFF0
7001FFFFFFFFFFF0
3000FFFFFFFFFFF0
3000FFFFFFFFFFF0
3800FFFFFFFFFFE0
1800FFFFFFFFFFE0
1C007FFFFFFFFFC0
0C007FFFFFFFFFC0
0E007FFFFFFFFF80
06003FFFFFFFFF80
07003FFFFFFFFF00
03803FFFFFFFFE00
01C01FFFFFFFFE00
00E01FFFFFFFFC00
00700FFFFFFFF800
003807FFFFFFF000
001C07FFFFFFE000
000E03FFFFFFC000
000781FFFFFF0000
0001E0FFFFFE0000
0000FC7FFFF80000
00003F8FFFE00000
000007FFFF000000
0000007FF0000000
ENDCHAR
STARTCHAR 0058
ENCODING 88
SWIDTH 1005 0
DWIDTH 67 0
BBX 61 61 3 3
BITMAP
0000007FF8000000
000007FFFF800000
00003F9FFFE00000
0000F8FFFFF80000
0001E1FFFFFE0000
000787FFFFFF0000
000E0FFFFFFFC000
001C1FFFFFFFE000
00383FFFFFFFF000
00707FFFFFFFF800
00E07FFFFFFFFC00
01C0FFFFFFFFFE00
0381FFFFFFFFFE00
0701FFFFFFFFFF00
0603FFFFFFFFFF80
0E03FFFFFFFFFF80
0C07FFFFFFFFFFC0
1807FFFFFFFFFFC0
1807FFFFFFFFFFE0
380FFFFFFFFFFFE0
300FFFFFFFFFFFF0
300FFFFFFFFFFFF0
700FFFFFFFFFFFF0
600FFFFFFFFFFFF0
601FFFFFFFFFFFF8
601FFFFFFFFFFFF8
601FFFFFFFFFFFF8
E01FFFFFFFFFFFF8
E01FFFFFFFFFFFF8
E01FFFFFFFFFFFF8
E01FFFFFFFFFFFF8
E01FFFFFFFFFFFF8
E01FFFFFFFFFFFF8
E01FFFFFFFFFFFF8
E01FFFFFFFFFFFF8
601FFFFFFFFFFFF8
601FFFFFFFFFFFF8
600FFFFFFFFFFFF0
700FFFFFFFFFFFF0
300FFFFFFFFFFFF0
300FFFFFFFFFFFF0
380FFFFFFFFFFFE0
1807FFFFFFFFFFE0
1C07FFFFFFFFFFC0
0C07FFFFFFFFFFC0
0E03FFFFFFFFFF80
0603FFFFFFFFFF80
0701FFFFFFFFFF00
0381FFFFFFFFFE00
01C0FFFFFFFFFE00
00E07FFFFFFFFC00
00707FFFFFFFF800
00383FFFFFFFF000
001C1FFFFFFFE000
000E0FFFFFFFC000
000787FFFFFF0000
0001E3FFFFFE0000
0000FCFFFFF80000
00003F9FFFE00000
000007FFFF000000
0000007FF0000000
ENDCHAR
STARTCHAR 0059
ENCODING 89
SWIDTH 1005 0
DWIDTH 67 0
BBX 61 61 3 3
BITMAP
0000007FF8000000
000007FFFF800000
00003FFFFFE00000
0000F9FFFFF80000
0001E7FFFFFE0000
00078FFFFFFF0000
000E3FFFFFFFC000
001C7FFFFFFFE000
0038FFFFFFFFF000
0071FFFFFFFFF800
00E3FFFFFFFFFC00
01C3FFFFFFFFFE00
0387FFFFFFFFFE00
070FFFFFFFFFFF00
060FFFFFFFFFFF80
0E1FFFFFFFFFFF80
0C1FFFFFFFFFFFC0
183FFFFFFFFFFFC0
183FFFFFFFFFFFE0
387FFFFFFFFFFFE0
307FFFFFFFFFFFF0
307FFFFFFFFFFFF0
707FFFFFFFFFFFF0
60FFFFFFFFFFFFF0
60FFFFFFFFFFFFF8
60FFFFFFFFFFFFF8
60FFFFFFFFFFFFF8
E0FFFFFFFFFFFFF8
E0FFFFFFFFFFFFF8
E0FFFFFFFFFFFFF8
E0FFFFFFFFFFFFF8
E0FFFFFFFFFFFFF8
E0FFFFFFFFFFFFF8
E0FFFFFFFFFFFFF8
E0FFFFFFFFFFFFF8
60FFFFFFFFFFFFF8
60FFFFFFFFFFFFF8
60FFFFFFFFFFFFF0
707FFFFFFFFFFFF0
307FFFFFFFFFFFF0
307FFFFFFFFFFFF0
387FFFFFFFFFFFE0
183FFFFFFFFFFFE0
1C3FFFFFFFFFFFC0
0C1FFFFFFFFFFFC0
0E1FFFFFFFFFFF80
060FFFFFFFFFFF80
070FFFFFFFFFFF00
0387FFFFFFFFFE00
01C3FFFFFFFFFE00
00E3FFFFFFFFFC00
0071FFFFFFFFF800
0038FFFFFFFFF000
001C7FFFFFFFE000
000E3FFFFFFFC000
00078FFFFFFF0000
0001E7FFFFFE0000
0000FDFFFFF80000
00003FBFFFE00000
000007FFFF000000
0000007FF0000000
ENDCHAR
STARTCHAR 005A
ENCODING 90
SWIDTH 1005 0
DWIDTH 67 0
BBX 61 61 3 3
BITMAP
0000007FF8000000
000007FFFF800000
00003FFFFFE00000
0000FBFFFFF80000
0001EFFFFFFE0000
0007BFFFFFFF0000
000E7FFFFFFFC000
001DFFFFFFFFE000
003BFFFFFFFFF000
0077FFFFFFFFF800
00EFFFFFFFFFFC00
01CFFFFFFFFFFE00
039FFFFFFFFFFE00
073FFFFFFFFFFF00
067FFFFFFFFFFF80
0E7FFFFFFFFFFF80
0CFFFFFFFFFFFFC0
18FFFFFFFFFFFFC0
19FFFFFFFFFFFFE0
39FFFFFFFFFFFFE0
33FFFFFFFFFFFFF0
33FFFFFFFFFFFFF0
73FFFFFFFFFFFFF0
63FFFFFFFFFFFFF0
67FFFFFFFFFFFFF8
67FFFFFFFFFFFFF8
67FFFFFFFFFFFFF8
E7FFFFFFFFFFFFF8
E7FFFFFFFFFFFFF8
E7FFFFFFFFFFFFF8
E7FFFFFFFFFFFFF8
E7FFFFFFFFFFFFF8
E7FFFFFFFFFFFFF8
E7FFFFFFFFFFFFF8
E7FFFFFFFFFFFFF8
67FFFFFFFFFFFFF8
67FFFFFFFFFFFFF8
63FFFFFFFFFFFFF0
73FFFFFFFFFFFFF0
33FFFFFFFFFFFFF0
33FFFFFFFFFFFFF0
39FFFFFFFFFFFFE0
19FFFFFFFFFFFFE0
1CFFFFFFFFFFFFC0
0CFFFFFFFFFFFFC0
0E7FFFFFFFFFFF80
067FFFFFFFFFFF80
073FFFFFFFFFFF00
039FFFFFFFFFFE00
01DFFFFFFFFFFE00
00EFFFFFFFFFFC00
0077FFFFFFFFF800
003BFFFFFFFFF000
001DFFFFFFFFE000
000E7FFFFFFFC000
0007BFFFFFFF0000
0001EFFFFFFE0000
0000FFFFFFF80000
00003FBFFFE00000
000007FFFF000000
0000007FF0000000
ENDCHAR
STARTCHAR 0061
ENCODING 97
SWIDTH 975 0
DWIDTH 65 0
BBX 28 57 34 5
BITMAP
F8000000
07800000
00700000
00080000
00060000
00010000
0000C000
00006000
00003000
00001800
00000C00
00000C00
00000600
00000300
00000300
00000180
000001C0
000000C0
000000C0
000000E0
00000060
00000060
00000060
00000070
00000070
00000070
00000030
00000030
00000030
00000030
00000030
00000030
00000070
00000070
00000060
00000060
00000060
000000E0
000000C0
000000C0
00000180
00000180
00000300
00000300
00000600
00000400
00000C00
00001800
00003000
00006000
0000C000
00010000
00020000
00080000
00200000
00C00000
FF000000
ENDCHAR
STARTCHAR 0062
ENCODING 98
SWIDTH 975 0
DWIDTH 65 0
BBX 28 57 34 5
BITMAP
F8000000
07800000
00700000
00180000
000E0000
00070000
0003C000
0001E000
0000F000
00007800
00003C00
00003C00
00001E00
00001F00
00000F00
00000F80
000007C0
000007C0
000007C0
000003E0
000003E0
000003E0
000003E0
000003F0
000001F0
000001F0
000001F0
000001F0
000001F0
000001F0
000001F0
000001F0
000001F0
000001F0
000003E0
000003E0
000003E0
000003E0
000007C0
000007C0
00000780
00000F80
00000F00
00001F00
00001E00
00003C00
00003C00
00007800
0000F000
0001E000
0003C000
00070000
000E0000
00180000
00600000
01800000
FE000000
ENDCHAR
STARTCHAR 0063
ENCODING 99
SWIDTH 975 0
DWIDTH 65 0
BBX 28 57 34 5
BITMAP
F8000000
07800000
00F00000
00780000
003E0000
001F0000
000FC000
0007E000
0003F000
0003F800
0001FC00
0000FC00
0000FE00
00007F00
00007F00
00007F80
00003FC0
00003FC0
00003FC0
00001FE0
00001FE0
00001FE0
00001FE0
00001FF0
00001FF0
00001FF0
00001FF0
00001FF0
00000FF0
00001FF0
00001FF0
00001FF0
00001FF0
00001FF0
00001FE0
00001FE0
00001FE0
00001FE0
00003FC0
00003FC0
00003F80
00007F80
00007F00
00007F00
0000FE00
0000FC00
0001FC00
0003F800
0003F000
0007E000
000FC000
001F0000
003E0000
00780000
00E00000
03800000
FC000000
ENDCHAR
STARTCHAR 0064
ENCODING 100
SWIDTH 975 0
DWIDTH 65 0
BBX 28 57 34 5
BITMAP
F8000000
07800000
03F00000
01F80000
00FE0000
007F0000
003FC000
003FE000
001FF000
000FF800
000FFC00
000FFC00
0007FE00
0007FF00
0003FF00
0003FF80
0003FFC0
0003FFC0
0001FFC0
0001FFE0
0001FFE0
0001FFE0
0001FFE0
0001FFF0
0000FFF0
0000FFF0
0000FFF0
0000FFF0
0000FFF0
0000FFF0
0000FFF0
0000FFF0
0000FFF0
0001FFF0
0001FFE0
0001FFE0
0001FFE0
0001FFE0
0001FFC0
0003FFC0
0003FF80
0003FF80
0003FF00
0007FF00
0007FE00
0007FC00
000FFC00
000FF800
001FF000
003FE000
003FC000
007F0000
00FE0000
01F80000
03E00000
07800000
F8000000
ENDCHAR
STARTCHAR 0065
ENCODING 101
SWIDTH 975 0
DWIDTH 65 0
BBX 28 57 34 5
BITMAP
F8000000
1F800000
0FF00000
07F80000
03FE0000
03FF0000
01FFC000
01FFE000
00FFF000
00FFF800
00FFFC00
007FFC00
007FFE00
007FFF00
003FFF00
003FFF80
003FFFC0
003FFFC0
003FFFC0
003FFFE0
001FFFE0
001FFFE0
001FFFE0
001FFFF0
001FFFF0
001FFFF0
001FFFF0
001FFFF0
001FFFF0
001FFFF0
001FFFF0
001FFFF0
001FFFF0
001FFFF0
001FFFE0
001FFFE0
001FFFE0
003FFFE0
003FFFC0
003FFFC0
003FFF80
003FFF80
003FFF00
007FFF00
007FFE00
007FFC00
00FFFC00
00FFF800
00FFF000
01FFE000
01FFC000
03FF0000
03FE0000
07F80000
0FE00000
1F800000
F8000000
ENDCHAR
STARTCHAR 0066
ENCODING 102
SWIDTH 975 0
DWIDTH 65 0
BBX 28 57 34 5
BITMAP
F8000000
3F800000
3FF00000
1FF80000
1FFE0000
1FFF0000
0FFFC000
0FFFE000
0FFFF000
0FFFF800
0FFFFC00
07FFFC00
07FFFE00
07FFFF00
07FFFF00
07FFFF80
07FFFFC0
07FFFFC0
07FFFFC0
03FFFFE0
03FFFFE0
03FFFFE0
03FFFFE0
03FFFFF0
03FFFFF0
03FFFFF0
03FFFFF0
03FFFFF0
03FFFFF0
03FFFFF0
03FFFFF0
03FFFFF0
03FFFFF0
03FFFFF0
03FFFFE0
03FFFFE0
03FFFFE0
03FFFFE0
07FFFFC0
07FFFFC0
07FFFF80
07FFFF80
07FFFF00
07FFFF00
07FFFE00
07FFFC00
07FFFC00
0FFFF800
0FFFF000
0FFFE000
0FFFC000
1FFF0000
1FFE0000
1FF80000
3FE00000
3F800000
F8000000
ENDCHAR
STARTCHAR 0067
ENCODING 103
SWIDTH 975 0
DWIDTH 65 0
BBX 28 57 34 5
BITMAP
F8000000
FF800000
FFF00000
FFF80000
FFFE0000
FFFF0000
FFFFC000
FFFFE000
FFFFF000
FFFFF800
FFFFFC00
FFFFFC00
FFFFFE00
FFFFFF00
FFFFFF00
FFFFFF80
FFFFFFC0
FFFFFFC0
FFFFFFC0
FFFFFFE0
FFFFFFE0
FFFFFFE0
FFFFFFE0
FFFFFFF0
FFFFFFF0
FFFFFFF0
FFFFFFF0
FFFFFFF0
FFFFFFF0
FFFFFFF0
FFFFFFF0
FFFFFFF0
FFFFFFF0
FFFFFFF0
FFFFFFE0
FFFFFFE0
FFFFFFE0
FFFFFFE0
FFFFFFC0
FFFFFFC0
FFFFFF80
FFFFFF80
FFFFFF00
FFFFFF00
FFFFFE00
FFFFFC00
FFFFFC00
FFFFF800
FFFFF000
FFFFE000
FFFFC000
FFFF0000
FFFE0000
FFF80000
FFE00000
FF800000
F8000000
ENDCHAR
STARTCHAR 0068
ENCODING 104
SWIDTH 975 0
DWIDTH 65 0
BBX 34 57 28 5
BITMAP
07E0000000
0FFE000000
1FFFC00000
1FFFE00000
3FFFF80000
3FFFFC0000
3FFFFF0000
3FFFFF8000
7FFFFFC000
7FFFFFE000
7FFFFFF000
7FFFFFF000
7FFFFFF800
7FFFFFFC00
FFFFFFFC00
FFFFFFFE00
FFFFFFFF00
FFFFFFFF00
FFFFFFFF00
FFFFFFFF80
FFFFFFFF80
FFFFFFFF80
FFFFFFFF80
FFFFFFFFC0
FFFFFFFFC0
FFFFFFFFC0
FFFFFFFFC0
FFFFFFFFC0
FFFFFFFFC0
FFFFFFFFC0
FFFFFFFFC0
FFFFFFFFC0
FFFFFFFFC0
FFFFFFFFC0
FFFFFFFF80
FFFFFFFF80
FFFFFFFF80
FFFFFFFF80
FFFFFFFF00
FFFFFFFF00
FFFFFFFE00
FFFFFFFE00
FFFFFFFC00
FFFFFFFC00
7FFFFFF800
7FFFFFF000
7FFFFFF000
7FFFFFE000
7FFFFFC000
3FFFFF8000
3FFFFF0000
3FFFFC0000
3FFFF80000
1FFFE00000
1FFF800000
0FFE000000
07E0000000
ENDCHAR
STARTCHAR 0069
ENCODING 105
SWIDTH 975 0
DWIDTH 65 0
BBX 40 57 22 5
BITMAP
003F800000
00FFF80000
01FFFF0000
03FFFF8000
03FFFFE000
07FFFFF000
07FFFFFC00
0FFFFFFE00
0FFFFFFF00
1FFFFFFF80
1FFFFFFFC0
1FFFFFFFC0
3FFFFFFFE0
3FFFFFFFF0
3FFFFFFFF0
3FFFFFFFF8
7FFFFFFFFC
7FFFFFFFFC
7FFFFFFFFC
7FFFFFFFFE
7FFFFFFFFE
7FFFFFFFFE
7FFFFFFFFE
7FFFFFFFFF
7FFFFFFFFF
7FFFFFFFFF
FFFFFFFFFF
FFFFFFFFFF
FFFFFFFFFF
FFFFFFFFFF
FFFFFFFFFF
7FFFFFFFFF
7FFFFFFFFF
7FFFFFFFFF
7FFFFFFFFE
7FFFFFFFFE
7FFFFFFFFE
7FFFFFFFFE
7FFFFFFFFC
7FFFFFFFFC
7FFFFFFFF8
3FFFFFFFF8
3FFFFFFFF0
3FFFFFFFF0
3FFFFFFFE0
1FFFFFFFC0
1FFFFFFFC0
1FFFFFFF80
0FFFFFFF00
0FFFFFFE00
07FFFFFC00
07FFFFF000
03FFFFE000
03FFFF8000
01FFFE0000
00FFF80000
003F800000
ENDCHAR
STARTCHAR 006A
ENCODING 106
SWIDTH 975 0
DWIDTH 65 0
BBX 44 57 18 5
BITMAP
0007F8000000
001FFF800000
007FFFF00000
00FFFFF80000
01FFFFFE0000
03FFFFFF0000
03FFFFFFC000
07FFFFFFE000
0FFFFFFFF000
0FFFFFFFF800
1FFFFFFFFC00
1FFFFFFFFC00
1FFFFFFFFE00
3FFFFFFFFF00
3FFFFFFFFF00
3FFFFFFFFF80
7FFFFFFFFFC0
7FFFFFFFFFC0
7FFFFFFFFFC0
7FFFFFFFFFE0
FFFFFFFFFFE0
FFFFFFFFFFE0
FFFFFFFFFFE0
FFFFFFFFFFF0
FFFFFFFFFFF0
FFFFFFFFFFF0
FFFFFFFFFFF0
FFFFFFFFFFF0
FFFFFFFFFFF0
FFFFFFFFFFF0
FFFFFFFFFFF0
FFFFFFFFFFF0
FFFFFFFFFFF0
FFFFFFFFFFF0
FFFFFFFFFFE0
FFFFFFFFFFE0
FFFFFFFFFFE0
7FFFFFFFFFE0
7FFFFFFFFFC0
7FFFFFFFFFC0
7FFFFFFFFF80
7FFFFFFFFF80
3FFFFFFFFF00
3FFFFFFFFF00
1FFFFFFFFE00
1FFFFFFFFC00
1FFFFFFFFC00
0FFFFFFFF800
0FFFFFFFF000
07FFFFFFE000
03FFFFFFC000
03FFFFFF0000
01FFFFFE0000
00FFFFF80000
007FFFE00000
003FFF800000
0007F8000000
ENDCHAR
STARTCHAR 006B
ENCODING 107
SWIDTH 975 0
DWIDTH 65 0
BBX 48 57 14 5
BITMAP
0000FF800000
0007FFF80000
000FFFFF0000
003FFFFF8000
007FFFFFE000
00FFFFFFF000
01FFFFFFFC00
03FFFFFFFE00
03FFFFFFFF00
07FFFFFFFF80
0FFFFFFFFFC0
0FFFFFFFFFC0
1FFFFFFFFFE0
1FFFFFFFFFF0
3FFFFFFFFFF0
3FFFFFFFFFF8
3FFFFFFFFFFC
7FFFFFFFFFFC
7FFFFFFFFFFC
7FFFFFFFFFFE
7FFFFFFFFFFE
7FFFFFFFFFFE
FFFFFFFFFFFE
FFFFFFFFFFFF
FFFFFFFFFFFF
FFFFFFFFFFFF
FFFFFFFFFFFF
FFFFFFFFFFFF
FFFFFFFFFFFF
FFFFFFFFFFFF
FFFFFFFFFFFF
FFFFFFFFFFFF
FFFFFFFFFFFF
FFFFFFFFFFFF
FFFFFFFFFFFE
7FFFFFFFFFFE
7FFFFFFFFFFE
7FFFFFFFFFFE
7FFFFFFFFFFC
7FFFFFFFFFFC
3FFFFFFFFFF8
3FFFFFFFFFF8
3FFFFFFFFFF0
1FFFFFFFFFF0
1FFFFFFFFFE0
0FFFFFFFFFC0
0FFFFFFFFFC0
07FFFFFFFF80
03FFFFFFFF00
03FFFFFFFE00
01FFFFFFFC00
00FFFFFFF000
007FFFFFE000
003FFFFF8000
001FFFFE0000
0007FFF80000
0000FF800000
ENDCHAR
STARTCHAR 006C
ENCODING 108
SWIDTH 975 0
DWIDTH 65 0
BBX 51 57 11 5
BITMAP
00003FF0000000
0001FFFF000000
0007FFFFE00000
000FFFFFF00000
003FFFFFFC0000
007FFFFFFE0000
00FFFFFFFF8000
01FFFFFFFFC000
03FFFFFFFFE000
03FFFFFFFFF000
07FFFFFFFFF800
0FFFFFFFFFF800
0FFFFFFFFFFC00
1FFFFFFFFFFE00
1FFFFFFFFFFE00
3FFFFFFFFFFF00
3FFFFFFFFFFF80
7FFFFFFFFFFF80
7FFFFFFFFFFF80
7FFFFFFFFFFFC0
7FFFFFFFFFFFC0
FFFFFFFFFFFFC0
FFFFFFFFFFFFC0
FFFFFFFFFFFFE0
FFFFFFFFFFFFE0
FFFFFFFFFFFFE0
FFFFFFFFFFFFE0
FFFFFFFFFFFFE0
FFFFFFFFFFFFE0
FFFFFFFFFFFFE0
FFFFFFFFFFFFE0
FFFFFFFFFFFFE0
FFFFFFFFFFFFE0
FFFFFFFFFFFFE0
FFFFFFFFFFFFC0
FFFFFFFFFFFFC0
7FFFFFFFFFFFC0
7FFFFFFFFFFFC0
7FFFFFFFFFFF80
7FFFFFFFFFFF80
3FFFFFFFFFFF00
3FFFFFFFFFFF00
1FFFFFFFFFFE00
1FFFFFFFFFFE00
0FFFFFFFFFFC00
0FFFFFFFFFF800
07FFFFFFFFF800
03FFFFFFFFF000
03FFFFFFFFE000
01FFFFFFFFC000
00FFFFFFFF8000
007FFFFFFE0000
003FFFFFFC0000
000FFFFFF00000
0007FFFFC00000
0001FFFF000000
00003FF0000000
ENDCHAR
STARTCHAR 006D
ENCODING 109
SWIDTH 975 0
DWIDTH 65 0
BBX 54 57 8 5
BITMAP
000007FE000000
00007FFFE00000
0001FFFFFC0000
0007FFFFFE0000
000FFFFFFF8000
003FFFFFFFC000
007FFFFFFFF000
00FFFFFFFFF800
01FFFFFFFFFC00
01FFFFFFFFFE00
03FFFFFFFFFF00
07FFFFFFFFFF00
0FFFFFFFFFFF80
0FFFFFFFFFFFC0
1FFFFFFFFFFFC0
1FFFFFFFFFFFE0
3FFFFFFFFFFFF0
3FFFFFFFFFFFF0
7FFFFFFFFFFFF0
7FFFFFFFFFFFF8
7FFFFFFFFFFFF8
7FFFFFFFFFFFF8
FFFFFFFFFFFFF8
FFFFFFFFFFFFFC
FFFFFFFFFFFFFC
FFFFFFFFFFFFFC
FFFFFFFFFFFFFC
FFFFFFFFFFFFFC
FFFFFFFFFFFFFC
FFFFFFFFFFFFFC
FFFFFFFFFFFFFC
FFFFFFFFFFFFFC
FFFFFFFFFFFFFC
FFFFFFFFFFFFFC
FFFFFFFFFFFFF8
7FFFFFFFFFFFF8
7FFFFFFFFFFFF8
7FFFFFFFFFFFF8
7FFFFFFFFFFFF0
3FFFFFFFFFFFF0
3FFFFFFFFFFFE0
1FFFFFFFFFFFE0
1FFFFFFFFFFFC0
0FFFFFFFFFFFC0
0FFFFFFFFFFF80
07FFFFFFFFFF00
03FFFFFFFFFF00
03FFFFFFFFFE00
01FFFFFFFFFC00
00FFFFFFFFF800
007FFFFFFFF000
003FFFFFFFC000
000FFFFFFF8000
0007FFFFFE0000
0001FFFFF80000
00007FFFE00000
000007FE000000
ENDCHAR
STARTCHAR 006E
ENCODING 110
SWIDTH 975 0
DWIDTH 65 0
BBX 55 57 5 5
BITMAP
000001FFC00000
00001FFFF80000
00007FFFFF0000
0001FFFFFF8000
0007FFFFFFE000
000FFFFFFFF000
001FFFFFFFF800
003FFFFFFFFC00
007FFFFFFFFE00
00FFFFFFFFFF00
01FFFFFFFFFF80
03FFFFFFFFFFC0
07FFFFFFFFFFC0
07FFFFFFFFFFE0
0FFFFFFFFFFFE0
1FFFFFFFFFFFF0
1FFFFFFFFFFFF0
1FFFFFFFFFFFF8
3FFFFFFFFFFFF8
3FFFFFFFFFFFF8
3FFFFFFFFFFFFC
7FFFFFFFFFFFFC
7FFFFFFFFFFFFC
7FFFFFFFFFFFFC
7FFFFFFFFFFFFC
7FFFFFFFFFFFFE
7FFFFFFFFFFFFE
FFFFFFFFFFFFFE
FFFFFFFFFFFFFE
FFFFFFFFFFFFFE
7FFFFFFFFFFFFE
7FFFFFFFFFFFFC
7FFFFFFFFFFFFC
7FFFFFFFFFFFFC
7FFFFFFFFFFFFC
7FFFFFFFFFFFFC
7FFFFFFFFFFFFC
3FFFFFFFFFFFF8
3FFFFFFFFFFFF8
1FFFFFFFFFFFF8
1FFFFFFFFFFFF0
1FFFFFFFFFFFF0
0FFFFFFFFFFFE0
07FFFFFFFFFFE0
07FFFFFFFFFFC0
03FFFFFFFFFFC0
01FFFFFFFFFF80
00FFFFFFFFFF00
007FFFFFFFFE00
003FFFFFFFFC00
001FFFFFFFF800
000FFFFFFFF000
0007FFFFFFE000
0001FFFFFF8000
00007FFFFE0000
00001FFFF80000
000001FFC00000
ENDCHAR
STARTCHAR 006F
ENCODING 111
SWIDTH 975 0
DWIDTH 65 0
BBX 52 57 5 5
BITMAP
000001FF800000
00001FFFF00000
00007FFFFC0000
0001FFFFFF0000
0007FFFFFF8000
000FFFFFFFC000
001FFFFFFFE000
003FFFFFFFF000
007FFFFFFFF800
00FFFFFFFFFC00
01FFFFFFFFFE00
03FFFFFFFFFE00
07FFFFFFFFFF00
07FFFFFFFFFF00
0FFFFFFFFFFF80
1FFFFFFFFFFF80
1FFFFFFFFFFFC0
1FFFFFFFFFFFC0
3FFFFFFFFFFFC0
3FFFFFFFFFFFE0
3FFFFFFFFFFFE0
7FFFFFFFFFFFE0
7FFFFFFFFFFFE0
7FFFFFFFFFFFF0
7FFFFFFFFFFFF0
7FFFFFFFFFFFF0
7FFFFFFFFFFFF0
FFFFFFFFFFFFF0
FFFFFFFFFFFFF0
FFFFFFFFFFFFF0
7FFFFFFFFFFFF0
7FFFFFFFFFFFF0
7FFFFFFFFFFFF0
7FFFFFFFFFFFF0
7FFFFFFFFFFFE0
7FFFFFFFFFFFE0
7FFFFFFFFFFFE0
3FFFFFFFFFFFE0
3FFFFFFFFFFFC0
1FFFFFFFFFFFC0
1FFFFFFFFFFFC0
1FFFFFFFFFFF80
0FFFFFFFFFFF80
07FFFFFFFFFF00
07FFFFFFFFFF00
03FFFFFFFFFE00
01FFFFFFFFFE00
00FFFFFFFFFC00
007FFFFFFFF800
003FFFFFFFF000
001FFFFFFFE000
000FFFFFFFC000
0007FFFFFF8000
0001FFFFFF0000
00007FFFFC0000
00001FFFF00000
000001FF800000
ENDCHAR
STARTCHAR 0070
ENCODING 112
SWIDTH 975 0
DWIDTH 65 0
BBX 49 57 5 5
BITMAP
000001FF800000
00000FFFE00000
00007FFFF80000
0001FFFFFC0000
0007FFFFFE0000
000FFFFFFF0000
001FFFFFFF8000
003FFFFFFFC000
007FFFFFFFE000
00FFFFFFFFE000
01FFFFFFFFF000
03FFFFFFFFF800
07FFFFFFFFF800
07FFFFFFFFFC00
0FFFFFFFFFFC00
1FFFFFFFFFFC00
1FFFFFFFFFFE00
1FFFFFFFFFFE00
3FFFFFFFFFFE00
3FFFFFFFFFFF00
3FFFFFFFFFFF00
7FFFFFFFFFFF00
7FFFFFFFFFFF00
7FFFFFFFFFFF00
7FFFFFFFFFFF00
7FFFFFFFFFFF00
7FFFFFFFFFFF00
FFFFFFFFFFFF80
FFFFFFFFFFFF80
FFFFFFFFFFFF00
7FFFFFFFFFFF00
7FFFFFFFFFFF00
7FFFFFFFFFFF00
7FFFFFFFFFFF00
7FFFFFFFFFFF00
7FFFFFFFFFFF00
7FFFFFFFFFFF00
3FFFFFFFFFFF00
3FFFFFFFFFFE00
1FFFFFFFFFFE00
1FFFFFFFFFFE00
1FFFFFFFFFFC00
0FFFFFFFFFFC00
07FFFFFFFFFC00
07FFFFFFFFF800
03FFFFFFFFF800
01FFFFFFFFF000
00FFFFFFFFE000
007FFFFFFFE000
003FFFFFFFC000
001FFFFFFF8000
000FFFFFFF0000
0007FFFFFF0000
0001FFFFFC0000
00007FFFF80000
00001FFFE00000
000001FF800000
ENDCHAR
STARTCHAR 0071
ENCODING 113
SWIDTH 975 0
DWIDTH 65 0
BBX 45 57 5 5
BITMAP
000001FF0000
00001FFFC000
00007FFFE000
0001FFFFF000
0007FFFFF800
000FFFFFFC00
001FFFFFFE00
003FFFFFFE00
007FFFFFFF00
00FFFFFFFF80
01FFFFFFFF80
03FFFFFFFFC0
07FFFFFFFFC0
07FFFFFFFFC0
0FFFFFFFFFE0
1FFFFFFFFFE0
1FFFFFFFFFE0
1FFFFFFFFFF0
3FFFFFFFFFF0
3FFFFFFFFFF0
3FFFFFFFFFF0
7FFFFFFFFFF0
7FFFFFFFFFF0
7FFFFFFFFFF0
7FFFFFFFFFF8
7FFFFFFFFFF8
7FFFFFFFFFF8
FFFFFFFFFFF8
FFFFFFFFFFF8
FFFFFFFFFFF8
7FFFFFFFFFF8
7FFFFFFFFFF8
7FFFFFFFFFF8
7FFFFFFFFFF0
7FFFFFFFFFF0
7FFFFFFFFFF0
7FFFFFFFFFF0
3FFFFFFFFFF0
3FFFFFFFFFF0
1FFFFFFFFFE0
1FFFFFFFFFE0
1FFFFFFFFFE0
0FFFFFFFFFE0
07FFFFFFFFC0
07FFFFFFFFC0
03FFFFFFFFC0
01FFFFFFFF80
00FFFFFFFF80
007FFFFFFF00
003FFFFFFE00
001FFFFFFE00
000FFFFFFC00
0007FFFFF800
0001FFFFF800
00007FFFE000
00001FFFC000
000001FF0000
ENDCHAR
STARTCHAR 0072
ENCODING 114
SWIDTH 975 0
DWIDTH 65 0
BBX 40 57 5 5
BITMAP
000001FE00
00001FFF00
00007FFF80
0001FFFFC0
0007FFFFE0
000FFFFFE0
001FFFFFF0
003FFFFFF0
007FFFFFF8
00FFFFFFF8
01FFFFFFF8
03FFFFFFFC
07FFFFFFFC
07FFFFFFFC
0FFFFFFFFE
1FFFFFFFFE
1FFFFFFFFE
1FFFFFFFFE
3FFFFFFFFE
3FFFFFFFFE
3FFFFFFFFF
7FFFFFFFFF
7FFFFFFFFF
7FFFFFFFFF
7FFFFFFFFF
7FFFFFFFFF
7FFFFFFFFF
FFFFFFFFFF
FFFFFFFFFF
FFFFFFFFFF
7FFFFFFFFF
7FFFFFFFFF
7FFFFFFFFF
7FFFFFFFFF
7FFFFFFFFF
7FFFFFFFFF
7FFFFFFFFF
3FFFFFFFFE
3FFFFFFFFE
1FFFFFFFFE
1FFFFFFFFE
1FFFFFFFFE
0FFFFFFFFE
07FFFFFFFC
07FFFFFFFC
03FFFFFFFC
01FFFFFFFC
00FFFFFFF8
007FFFFFF8
003FFFFFF0
001FFFFFF0
000FFFFFE0
0007FFFFE0
0001FFFFC0
00007FFF80
00001FFF00
000001FE00
ENDCHAR
STARTCHAR 0073
ENCODING 115
SWIDTH 975 0
DWIDTH 65 0
BBX 35 57 5 5
BITMAP
000001FC00
00000FFE00
00007FFE00
0001FFFF00
0007FFFF00
000FFFFF00
001FFFFF80
003FFFFF80
007FFFFF80
00FFFFFF80
01FFFFFFC0
03FFFFFFC0
07FFFFFFC0
07FFFFFFC0
0FFFFFFFC0
1FFFFFFFC0
1FFFFFFFC0
1FFFFFFFC0
3FFFFFFFC0
3FFFFFFFE0
3FFFFFFFE0
7FFFFFFFE0
7FFFFFFFE0
7FFFFFFFE0
7FFFFFFFE0
7FFFFFFFE0
7FFFFFFFE0
FFFFFFFFE0
FFFFFFFFE0
FFFFFFFFE0
7FFFFFFFE0
7FFFFFFFE0
7FFFFFFFE0
7FFFFFFFE0
7FFFFFFFE0
7FFFFFFFE0
7FFFFFFFE0
3FFFFFFFE0
3FFFFFFFC0
1FFFFFFFC0
1FFFFFFFC0
1FFFFFFFC0
0FFFFFFFC0
07FFFFFFC0
07FFFFFFC0
03FFFFFFC0
01FFFFFFC0
00FFFFFF80
007FFFFF80
003FFFFF80
001FFFFF80
000FFFFF00
0007FFFF00
0001FFFF00
00007FFE00
00001FFE00
000001FC00
ENDCHAR
STARTCHAR 0074
ENCODING 116
SWIDTH 975 0
DWIDTH 65 0
BBX 29 57 5 5
BITMAP
000001F8
00000FF8
00007FF8
0001FFF8
0007FFF8
000FFFF8
001FFFF8
003FFFF8
007FFFF8
00FFFFF8
01FFFFF8
03FFFFF8
07FFFFF8
07FFFFF8
0FFFFFF8
1FFFFFF8
1FFFFFF8
1FFFFFF8
3FFFFFF8
3FFFFFF8
3FFFFFF8
7FFFFFF8
7FFFFFF8
7FFFFFF8
7FFFFFF8
7FFFFFF8
7FFFFFF8
FFFFFFF8
FFFFFFF8
FFFFFFF8
7FFFFFF8
7FFFFFF8
7FFFFFF8
7FFFFFF8
7FFFFFF8
7FFFFFF8
7FFFFFF8
3FFFFFF8
3FFFFFF8
1FFFFFF8
1FFFFFF8
1FFFFFF8
0FFFFFF8
07FFFFF8
07FFFFF8
03FFFFF8
01FFFFF8
00FFFFF8
007FFFF8
003FFFF8
001FFFF8
000FFFF8
0007FFF8
0001FFF8
00007FF8
00001FF8
000001F8
ENDCHAR
STARTCHAR 0075
ENCODING 117
SWIDTH 975 0
DWIDTH 65 0
BBX 29 57 5 5
BITMAP
000001F8
00001FE0
00007FC0
0001FFC0
0007FF80
000FFF80
001FFF80
003FFF80
007FFF00
00FFFF00
01FFFF00
03FFFF00
07FFFF00
07FFFF00
0FFFFE00
1FFFFE00
1FFFFE00
1FFFFE00
3FFFFE00
3FFFFE00
3FFFFE00
7FFFFE00
7FFFFE00
7FFFFE00
7FFFFE00
7FFFFE00
7FFFFE00
FFFFFE00
FFFFFE00
FFFFFE00
7FFFFE00
7FFFFE00
7FFFFE00
7FFFFE00
7FFFFE00
7FFFFE00
7FFFFE00
3FFFFE00
3FFFFE00
1FFFFE00
1FFFFE00
1FFFFE00
0FFFFE00
07FFFF00
07FFFF00
03FFFF00
01FFFF00
00FFFF00
007FFF00
003FFF80
001FFF80
000FFF80
0007FF80
0001FFC0
00007FC0
00001FE0
000001F8
ENDCHAR
STARTCHAR 0076
ENCODING 118
SWIDTH 975 0
DWIDTH 65 0
BBX 29 57 5 5
BITMAP
000001F8
00000F80
00007F00
0001FE00
0007FE00
000FFC00
001FFC00
003FF800
007FF800
00FFF000
01FFF000
03FFF000
07FFE000
07FFE000
0FFFE000
1FFFE000
1FFFC000
1FFFC000
3FFFC000
3FFFC000
3FFFC000
7FFFC000
7FFFC000
7FFFC000
7FFFC000
7FFFC000
7FFF8000
FFFF8000
FFFF8000
FFFF8000
7FFF8000
7FFFC000
7FFFC000
7FFFC000
7FFFC000
7FFFC000
7FFFC000
3FFFC000
3FFFC000
1FFFC000
1FFFC000
1FFFE000
0FFFE000
07FFE000
07FFE000
03FFF000
01FFF000
00FFF000
007FF800
003FF800
001FFC00
000FFC00
0007FE00
0001FE00
00007F00
00001F80
000001F8
ENDCHAR
STARTCHAR 0077
ENCODING 119
SWIDTH 975 0
DWIDTH 65 0
BBX 29 57 5 5
BITMAP
000001F8
00001F00
00007C00
0001F800
0007F000
000FE000
001FE000
003FC000
007F8000
00FF8000
01FF0000
03FF0000
07FF0000
07FE0000
0FFE0000
1FFE0000
1FFC0000
1FFC0000
3FFC0000
3FFC0000
3FF80000
7FF80000
7FF80000
7FF80000
7FF80000
7FF80000
7FF80000
FFF80000
FFF80000
FFF80000
7FF80000
7FF80000
7FF80000
7FF80000
7FF80000
7FF80000
7FF80000
3FFC0000
3FFC0000
1FFC0000
1FFC0000
1FFE0000
0FFE0000
07FE0000
07FF0000
03FF0000
01FF0000
00FF8000
007F8000
003FC000
001FE000
000FE000
0007F000
0001F800
00007C00
00001F00
000001F8
ENDCHAR
STARTCHAR 0078
ENCODING 120
SWIDTH 975 0
DWIDTH 65 0
BBX 29 57 5 5
BITMAP
000001F8
00001E00
00007800
0001E000
0007C000
000F8000
001F0000
003E0000
007E0000
00FC0000
01F80000
03F80000
07F00000
07F00000
0FE00000
1FE00000
1FE00000
1FC00000
3FC00000
3FC00000
3FC00000
7FC00000
7F800000
7F800000
7F800000
7F800000
7F800000
FF800000
FF800000
FF800000
7F800000
7F800000
7F800000
7F800000
7F800000
7FC00000
7FC00000
3FC00000
3FC00000
1FE00000
1FE00000
1FE00000
0FF00000
07F00000
07F00000
03F80000
01F80000
00FC0000
007E0000
003E0000
001F0000
000F8000
0007C000
0001E000
00007800
00001C00
000003F8
ENDCHAR
STARTCHAR 0079
ENCODING 121
SWIDTH 975 0
DWIDTH 65 0
BBX 29 57 5 5
BITMAP
000001F8
00000E00
00007000
0001C000
00070000
000E0000
001C0000
00380000
00700000
00F00000
01E00000
03C00000
07C00000
07800000
0F800000
1F000000
1F000000
1E000000
3E000000
3E000000
3E000000
7C000000
7C000000
7C000000
7C000000
7C000000
7C000000
FC000000
FC000000
FC000000
7C000000
7C000000
7C000000
7C000000
7C000000
7C000000
7E000000
3E000000
3E000000
1E000000
1F000000
1F000000
0F800000
07800000
07C00000
03C00000
01E00000
00F00000
00700000
00380000
001C0000
000E0000
00070000
0001C000
00006000
00001800
000007F8
ENDCHAR
STARTCHAR 007A
ENCODING 122
SWIDTH 975 0
DWIDTH 65 0
BBX 29 57 5 5
BITMAP
000001F8
00001E00
00006000
00018000
00060000
00080000
00100000
00200000
00400000
00C00000
01800000
03000000
06000000
06000000
0C000000
1C000000
18000000
18000000
30000000
30000000
30000000
70000000
60000000
60000000
60000000
60000000
60000000
E0000000
E0000000
E0000000
60000000
60000000
60000000
60000000
60000000
70000000
70000000
30000000
30000000
18000000
18000000
1C000000
0C000000
06000000
06000000
03000000
01800000
00C00000
00400000
00200000
00100000
000C0000
00060000
00010000
0000C000
00003000
00000FF8
ENDCHAR
STARTCHAR 00A9
ENCODING 169
SWIDTH 840 0
DWIDTH 56 0
BBX 52 67 1 0
BITMAP
840000F2000000
8C00008A000000
CD4E708B9CEB70
D52948F2428940
D52948825E6E30
A5294882672950
0086000018C620
00000000000000
00000000000000
00000000000000
00000204000000
0000060C000000
00000204000000
00000204000000
00000204000000
00000244000000
00000000000000
00000000000000
00000000000000
00000000000000
01E04773C40000
02D0C94A052400
0330494B86A400
0350473844A800
02F0494A449800
01A04673879800
00400000001000
00000000003000
00000000000000
02000001800000
0D802806500400
0825E98413BD80
10252AC414A600
1025298413A600
08A52A4454A500
073D3B8397A480
00000000000000
00000000000000
00000000000000
00000000000000
00000000000000
00000000000000
00000000000000
00000000000000
00000000000000
00000000000000
00000000000000
00000000000000
00000000000000
001F0000C00000
00100000800000
00106E71BD8000
001E9290A50000
00109DE0A50000
00109290A50000
00000C40180000
00000000000000
00000000000000
00000000000000
00000000400000
00000000400000
7BDF9DEF44BDC0
4BD3252344B1E0
4A10E52D448E00
6952952B42A560
50810804011880
40000000000000
ENDCHAR
ENDFONT
